<svg width="28" height="28" viewBox="0 0 28 28" fill="none" xmlns="http://www.w3.org/2000/svg">
<path fill-rule="evenodd" clip-rule="evenodd" d="M13.9856 0C17.842 0 21.3384 1.56473 23.8725 4.09875C26.3996 6.62585 27.9643 10.1223 27.9643 13.9856C27.9643 17.842 26.3996 21.3384 23.8725 23.8725C21.3384 26.3996 17.842 27.9643 13.9856 27.9643C10.1223 27.9643 6.62585 26.3996 4.09875 23.8725C1.56473 21.3384 0 17.842 0 13.9856C0 10.1223 1.56473 6.62585 4.09875 4.09875C6.62585 1.56473 10.1223 0 13.9856 0ZM22.3285 5.64271C21.4977 4.80496 20.5422 4.09875 19.4968 3.54487C19.6629 3.80104 19.8222 4.06413 19.9745 4.34108C21.2138 6.58431 22.0239 9.57529 22.1693 12.8917H25.7349C25.4787 10.0669 24.2256 7.53284 22.3285 5.64271ZM22.3285 22.3285C24.2256 20.4314 25.4787 17.8974 25.7349 15.0726H22.1693C22.0239 18.389 21.2138 21.38 19.9745 23.6232C19.8222 23.9002 19.6629 24.1702 19.4968 24.4194C20.5422 23.8655 21.4977 23.1593 22.3285 22.3285ZM5.64271 22.3285C6.47353 23.1593 7.42206 23.8655 8.47445 24.4194C8.30828 24.1702 8.14904 23.9002 7.99672 23.6232C6.7574 21.38 5.94734 18.389 5.79503 15.0726H2.23631C2.49248 17.8974 3.74565 20.4314 5.64271 22.3285ZM5.64271 5.64271C3.74565 7.53284 2.49248 10.0669 2.23631 12.8917H5.79503C5.94734 9.57529 6.7574 6.58431 7.99672 4.34108C8.14904 4.06413 8.30828 3.80104 8.47445 3.54487C7.42206 4.09875 6.47353 4.80496 5.64271 5.64271ZM15.0726 2.38863V12.8917H19.9883C19.8429 9.95609 19.1367 7.33206 18.0636 5.39346C17.2328 3.88412 16.2011 2.81789 15.0726 2.38863ZM15.0726 15.0726V25.5757C16.2011 25.1464 17.2328 24.0802 18.0636 22.5778C19.1367 20.6322 19.8429 18.0082 19.9883 15.0726H15.0726ZM12.8917 25.5757V15.0726H7.98287C8.12134 18.0082 8.83447 20.6322 9.90762 22.5778C10.7385 24.0802 11.7701 25.1464 12.8917 25.5757ZM12.8917 12.8917V2.38863C11.7701 2.81789 10.7385 3.88412 9.90762 5.39346C8.83447 7.33206 8.12134 9.95609 7.98287 12.8917H12.8917Z" fill="white"/>
</svg>
