<?xml version="1.0" encoding="UTF-8"?>
<svg width="24" height="24" version="1.1" viewBox="0 0 24 24" xml:space="preserve" xmlns="http://www.w3.org/2000/svg" xmlns:cc="http://creativecommons.org/ns#" xmlns:dc="http://purl.org/dc/elements/1.1/" xmlns:rdf="http://www.w3.org/1999/02/22-rdf-syntax-ns#"><metadata><rdf:RDF><cc:Work rdf:about=""><dc:format>image/svg+xml</dc:format><dc:type rdf:resource="http://purl.org/dc/dcmitype/StillImage"/></cc:Work></rdf:RDF></metadata><defs><style>.cls-1{fill:#fff;}</style><style>.cls-1{fill:none;stroke:#000;stroke-linecap:square;stroke-miterlimit:10;stroke-width:16px;}</style><style>.cls-1{fill:none;stroke:#000;stroke-linecap:square;stroke-miterlimit:10;stroke-width:16px;}</style><style>.cls-1{fill:#fff;}</style><style>.cls-1{fill:none;stroke:#000;stroke-linecap:square;stroke-miterlimit:10;stroke-width:16px;}</style><style>.cls-1{fill:none;stroke:#000;stroke-linecap:square;stroke-miterlimit:10;stroke-width:16px;}</style></defs><path d="m18.351 1 1.9726 7.362-2.4545 0.65675-1.3141-4.9079-4.9075 1.3159-0.65849-2.454zm-17.351 4.6491 7.362-1.9726 0.65675 2.4545-4.9079 1.3141 1.3159 4.9075-2.454 0.65849zm22 12.702-7.362 1.9726-0.65676-2.4545 4.9079-1.3141-1.3159-4.9075 2.454-0.65849zm-12.27-4.1509a2.5403 2.5403 0 1 1 2.5403-4.4 2.5403 2.5403 0 0 1-2.5403 4.4zm-5.0807 8.8-1.9726-7.362 2.4545-0.65676 1.3141 4.9079 4.9075-1.3159 0.65849 2.454z" fill="#fff" stroke-width="2.117"/></svg>
