<?xml version="1.0" encoding="UTF-8"?>
<svg width="24" height="24" version="1.1" viewBox="0 0 24 24" xml:space="preserve" xmlns="http://www.w3.org/2000/svg" xmlns:cc="http://creativecommons.org/ns#" xmlns:dc="http://purl.org/dc/elements/1.1/" xmlns:rdf="http://www.w3.org/1999/02/22-rdf-syntax-ns#"><metadata><rdf:RDF><cc:Work rdf:about=""><dc:format>image/svg+xml</dc:format><dc:type rdf:resource="http://purl.org/dc/dcmitype/StillImage"/></cc:Work></rdf:RDF></metadata><defs><style>.cls-1{fill:#fff;}</style><style>.cls-1{fill:none;stroke:#000;stroke-linecap:square;stroke-miterlimit:10;stroke-width:16px;}</style><style>.cls-1{fill:none;stroke:#000;stroke-linecap:square;stroke-miterlimit:10;stroke-width:16px;}</style></defs><path d="m16.2 9.156c-1.5545 0.82889-2.9713 1.8935-4.2 3.156-1.2223-1.2697-2.6403-2.3352-4.2-3.156 0.288-3.324 1.704-6.588 4.272-9.156 2.544 2.544 3.9 5.808 4.128 9.156m-4.2 6.984c2.58-3.936 6.984-6.54 12-6.54 0 12-11.184 14.396-12 14.4-0.816-0.038524-12-2.4-12-14.4 5.016 0 9.42 2.604 12 6.54m0 5.56s7.412-1.3 9.5-9.4c-6.888 2.1-9.5 8.22-9.5 8.22s-3.812-7.2499-9.5-8.1379c2.088 8.088 9.5 9.3179 9.5 9.3179z" fill="#fff" stroke-width="21.333"/></svg>
