<?xml version="1.0" encoding="UTF-8"?>
<svg width="24" height="24" version="1.1" viewBox="0 0 6.35 6.35" xmlns="http://www.w3.org/2000/svg">
 <g transform="matrix(.174 0 0 .174 .427 .45)" stroke-width="1.52">
  <g transform="matrix(.0321 0 0 .0321 -.0338 -.034)" fill="#fff" stroke-width="2.32"></g>
 </g>
 <rect x=".794" y=".794" width="5.03" height="4.76" rx=".529" ry=".529" fill="none" stroke="#fff" stroke-dashoffset="12.8" stroke-linejoin="round" stroke-width=".529"/>
 <g fill="#fff">
  <path d="m1.32 3.44h1.06c0.293 0 0.529 0.236 0.529 0.529v1.06c0 0.293-1e-7 0.506-1e-7 0.506l-1.59 0.0231c-0.293 0.00426-0.529-0.236-0.529-0.529v-1.59s0.236 2e-7 0.529 2e-7z" stroke-dashoffset="12.8" stroke-linejoin="round" stroke-width=".661"/>
  <rect x="3.18" y="1.85" width="1.59" height=".529"/>
  <rect x="4.23" y="1.85" width=".529" height="1.59"/>
 </g>
</svg>
